<svg xmlns="http://www.w3.org/2000/svg" width="39.597" height="39.596" viewBox="0 0 39.597 39.596">
  <g id="vuesax_bold_notification" data-name="vuesax/bold/notification" transform="translate(0 0)">
    <g id="notification" transform="translate(0 0)">
      <path id="Vector" d="M24.8,20.607l-1.65-2.739a6.129,6.129,0,0,1-.66-2.442V11.252a9.749,9.749,0,0,0-5.56-8.794A4.828,4.828,0,0,0,12.67,0,4.885,4.885,0,0,0,8.4,2.508a9.781,9.781,0,0,0-5.445,8.744v4.174a5.982,5.982,0,0,1-.66,2.425L.626,20.607a3.856,3.856,0,0,0,2.161,5.824,30.857,30.857,0,0,0,9.932,1.617,31.3,31.3,0,0,0,9.932-1.6,3.979,3.979,0,0,0,2.145-5.84Z" transform="translate(7.112 3.3)" fill="#014d71"/>
      <path id="Vector-2" data-name="Vector" d="M9.322.016A4.973,4.973,0,0,1,4.653,3.3a4.892,4.892,0,0,1-3.5-1.468A4.555,4.555,0,0,1,0,0C.214.033.429.049.66.082c.379.049.775.1,1.171.132.94.082,1.9.132,2.854.132.94,0,1.881-.049,2.8-.132.346-.033.693-.049,1.023-.1C8.777.082,9.041.049,9.322.016Z" transform="translate(15.146 32.997)" fill="#014d71"/>
      <path id="Vector-3" data-name="Vector" d="M0,0H39.6V39.6H0Z" transform="translate(39.597 39.596) rotate(180)" fill="none" opacity="0"/>
    </g>
  </g>
</svg>
